<svg height="512pt" viewBox="-4 0 512 512.00004" width="512pt" xmlns="http://www.w3.org/2000/svg"><path d="m451.25 60.75h-52.066406l-17.355469 251.660156h86.777344zm0 0" fill="#acabb1"/><path d="m277.691406 390.507812h69.425782v121.492188h-69.425782zm0 0" fill="#57565c"/><g fill="#acabb1"><path d="m52.066406 407.867188h34.710938v52.066406h-34.710938zm0 0"/><path d="m121.492188 407.867188h34.710937v52.066406h-34.710937zm0 0"/><path d="m190.914062 407.867188h34.710938v52.066406h-34.710938zm0 0"/></g><path d="m260.335938 251.664062-86.777344 69.421876v-69.421876l-86.78125 69.421876v-69.421876l-86.777344 52.066407v208.269531h260.335938zm-173.558594 208.269532h-34.710938v-52.066406h34.710938zm69.425781 0h-34.710937v-52.066406h34.710937zm69.421875 0h-34.710938v-52.066406h34.710938zm0 0" fill="#ffcd00"/><path d="m468.605469 312.410156h-121.488281v-60.746094l-86.78125 69.421876v190.914062h17.355468v-121.492188h69.425782v121.492188h156.199218v-199.589844zm0 0" fill="#ffd733"/><path d="m425.214844 34.714844c-8.046875-.082032-15.402344-4.566406-19.167969-11.679688-2.863281-4.128906-3.933594-5.675781-8.601563-5.675781-.625.375-3.84375 3.402344-5.96875 5.398437-5.492187 6.601563-13.28125 10.875-21.800781 11.957032-7.378906-.976563-14.105469-4.75-18.785156-10.542969-2.515625-2.351563-7.195313-6.734375-8.984375-6.8125-2.660156 1.734375-5.113281 3.773437-7.304688 6.074219-5.132812 6.230468-12.453124 10.265625-20.460937 11.28125-7.613281-1.023438-14.550781-4.894532-19.421875-10.828125-2.421875-2.628907-5.261719-4.835938-8.410156-6.527344-4.792969-.015625-8.664063-3.914063-8.648438-8.707031.019532-4.792969 3.917969-8.6640628 8.710938-8.64843775 7.921875 1.03124975 15.160156 5.03906275 20.234375 11.21093775 2.285156 2.429687 4.917969 4.507812 7.8125 6.164062 3.097656-1.792968 5.914062-4.03125 8.355469-6.648437 4.800781-5.859375 11.632812-9.6875 19.132812-10.72656275 8.160156 1.03906275 15.609375 5.15624975 20.828125 11.50781275 2.164063 2.28125 4.621094 4.261719 7.308594 5.890625 1.804687 0 6.636719-4.582032 9.542969-7.296875 4.453124-5.515625 10.839843-9.128907 17.859374-10.10156275 9.46875-.17187525 18.261719 4.89062475 22.867188 13.16406275 2.828125 4.070312 3.167969 4.191406 4.902344 4.191406 4.792968 0 8.679687 3.886719 8.679687 8.679687 0 4.792969-3.886719 8.675782-8.679687 8.675782zm0 0" fill="#898890"/></svg>